<?xml version="1.0" standalone="no"?>
<!DOCTYPE svg PUBLIC "-//W3C//DTD SVG 20010904//EN"
 "http://www.w3.org/TR/2001/REC-SVG-20010904/DTD/svg10.dtd">
<svg version="1.0" xmlns="http://www.w3.org/2000/svg"
 width="512.000000pt" height="512.000000pt" viewBox="0 0 512.000000 512.000000"
 preserveAspectRatio="xMidYMid meet">
<metadata>
Created by potrace 1.14, written by Peter Selinger 2001-2017
</metadata>
<g transform="translate(0.000000,512.000000) scale(0.100000,-0.100000)"
fill="#000000" stroke="none">
<path d="M2315 4729 c-348 -44 -719 -188 -989 -383 -68 -49 -69 -50 -43 -59
15 -5 27 -12 27 -16 0 -4 -28 -30 -63 -58 -34 -27 -105 -90 -157 -139 -52 -49
-89 -82 -82 -73 10 13 9 19 -3 29 -8 7 -12 17 -8 23 3 6 -3 4 -15 -4 -26 -19
-142 -148 -194 -216 -28 -36 -45 -51 -58 -48 -25 5 -80 -82 -171 -268 -259
-530 -290 -1165 -84 -1724 82 -220 224 -468 369 -641 195 -234 487 -461 769
-597 476 -231 1043 -278 1560 -129 755 217 1341 818 1536 1577 95 368 92 741
-9 1137 -37 146 -81 263 -158 417 -104 207 -306 487 -327 453 -5 -8 -4 -11 3
-6 6 3 13 2 16 -3 4 -5 0 -8 -8 -7 -7 1 -54 43 -105 93 -347 347 -805 572
-1301 639 -115 15 -393 17 -505 3z m-153 -1105 c51 -14 127 -38 168 -54 41
-15 93 -31 115 -35 22 -4 45 -10 50 -15 10 -8 117 -40 143 -42 6 -1 12 -4 12
-8 0 -7 65 -27 105 -33 28 -4 155 -68 155 -78 0 -5 5 -9 12 -9 14 0 110 -64
157 -105 34 -29 252 -240 415 -400 84 -82 128 -147 151 -223 11 -35 11 -43 0
-50 -7 -4 -15 -18 -18 -32 -3 -19 -5 -16 -6 12 0 23 -10 47 -23 62 -13 14
-140 93 -283 174 -143 82 -318 182 -390 224 -71 41 -191 110 -265 153 -212
122 -312 180 -504 293 -206 121 -241 131 -294 87 -18 -15 -36 -42 -41 -63 -33
-128 -59 -953 -42 -1322 22 -470 36 -571 84 -605 12 -8 16 -15 10 -15 -17 0
-106 102 -125 144 -36 76 -46 103 -67 176 -44 160 -87 415 -97 587 -5 80 -11
113 -20 117 -33 13 -4 337 52 588 19 84 35 158 37 163 32 98 46 131 86 189 53
80 75 98 151 126 77 27 160 25 272 -6z m1446 -1141 c-37 -84 -93 -153 -203
-248 -38 -33 -86 -75 -107 -94 -20 -18 -51 -43 -67 -55 -31 -22 -112 -89 -146
-119 -68 -61 -285 -185 -417 -238 -299 -119 -478 -183 -551 -198 -68 -15 -163
-16 -202 -3 l-30 10 40 1 c42 1 41 1 340 176 201 117 1163 672 1246 718 36 20
74 46 84 57 24 27 27 25 13 -7z"/>
<path d="M4150 4096 c0 -2 8 -10 18 -17 15 -13 16 -12 3 4 -13 16 -21 21 -21
13z"/>
</g>
</svg>
